<?xml version="1.0" encoding="UTF-8" standalone="no"?>
<!DOCTYPE svg PUBLIC "-//W3C//DTD SVG 1.1//EN" "http://www.w3.org/Graphics/SVG/1.1/DTD/svg11.dtd">
<svg width="100%" height="100%" viewBox="0 0 1123 1737" version="1.1" xmlns="http://www.w3.org/2000/svg" xmlns:xlink="http://www.w3.org/1999/xlink" xml:space="preserve" xmlns:serif="http://www.serif.com/" style="fill-rule:evenodd;clip-rule:evenodd;stroke-linejoin:round;stroke-miterlimit:1.5;">
    <g transform="matrix(1,0,0,1,-9446.55,-3382.04)">
        <g id="Lommetørklæde" transform="matrix(1,0,0,1,2714.84,-4541.03)">
            <g transform="matrix(1,0,0,1,-7.40734,-8.41572)">
                <path d="M7335.28,7941.9C7335.28,7941.9 6855.64,8626.93 6763.59,8663.7C6671.55,8700.48 7061.61,9657.83 7061.61,9657.83L7191.81,9432.75L7278.84,9657.83C7278.84,9657.83 7837.82,9096.49 7851.57,8897.93C7855.95,8834.54 7335.28,7941.9 7335.28,7941.9Z" style="fill:white;stroke:black;stroke-width:20.83px;"/>
            </g>
            <g transform="matrix(1,0,0,1,-8.3309,2.55393)">
                <path d="M7194.19,9433.88L6957.34,8753.46" style="fill:none;stroke:black;stroke-width:21.67px;stroke-linecap:round;"/>
            </g>
            <g transform="matrix(1,0,0,1,-2714.84,4541.03)">
                <path d="M9663.85,4214.98C9663.85,4214.98 10030.4,3657.89 10052.4,3540.36" style="fill:none;stroke:black;stroke-width:21.67px;"/>
            </g>
        </g>
    </g>
</svg>
