<?xml version="1.0" encoding="UTF-8" standalone="no"?>
<!DOCTYPE svg PUBLIC "-//W3C//DTD SVG 1.1//EN" "http://www.w3.org/Graphics/SVG/1.1/DTD/svg11.dtd">
<svg width="100%" height="100%" viewBox="0 0 5628 3823" version="1.1" xmlns="http://www.w3.org/2000/svg" xmlns:xlink="http://www.w3.org/1999/xlink" xml:space="preserve" xmlns:serif="http://www.serif.com/" style="fill-rule:evenodd;clip-rule:evenodd;stroke-linecap:round;stroke-linejoin:round;stroke-miterlimit:1.5;">
    <g transform="matrix(1,0,0,1,-5721.32,-7648.13)">
        <g id="Klat" transform="matrix(1,0,0,1,-283.138,4052.66)">
            <path d="M7180.91,3964.58C7512.14,3989.74 7313.99,3501.47 8826.63,3733.64C8893.8,3743.95 9231.03,3265.45 10149.3,4096.82C10336.4,4266.17 10492.7,3717.55 10915.3,4292.67C11031.4,4450.69 10514.4,4975.15 10617.7,5204.01C10720.9,5432.87 11544.9,5101.13 11615.4,5603.42C11707.3,6258.06 10760.5,5773.18 11150.4,6812.95C11385.5,7440.19 10466.8,7444.56 10236.1,7380.56C9425.43,7155.68 10069.2,6294.47 9025.26,6325.74C8149.9,6351.97 8585.17,6755.8 8333.69,7099.05C8236.72,7231.41 8057.86,7295.4 7896.52,7325.32C7352.11,7426.27 7303.82,6542.53 7180.91,6558.76C7018.37,6580.22 6534.93,7637.35 6272.11,7147.78C5754.95,6184.47 7037.83,5482.15 6678.8,5543.8C4993.37,5833.19 7054.02,4562.9 7008.78,4551C6515.46,4421.23 6325.71,3899.59 7180.91,3964.58Z" style="fill:rgb(173,245,157);stroke:rgb(35,31,32);stroke-width:20.83px;"/>
            <g transform="matrix(1,0,0,1,-3174.24,-2964.91)">
                <path d="M11338.6,7849.85L11507.9,8072.21" style="fill:none;stroke:black;stroke-width:21.67px;stroke-linecap:butt;"/>
            </g>
            <g transform="matrix(1,0,0,1,-2518.5,-2958.99)">
                <path d="M11338.6,7849.85L11507.9,8072.21" style="fill:none;stroke:black;stroke-width:21.67px;stroke-linecap:butt;"/>
            </g>
            <g transform="matrix(1,0,0,1,-3174.24,-2964.91)">
                <path d="M11557.1,7849.85L11338.6,8072.21" style="fill:none;stroke:black;stroke-width:21.67px;stroke-linecap:butt;"/>
            </g>
            <g transform="matrix(1,0,0,1,-2518.5,-2958.99)">
                <path d="M11557.1,7849.85L11338.6,8072.21" style="fill:none;stroke:black;stroke-width:21.67px;stroke-linecap:butt;"/>
            </g>
            <g transform="matrix(1.24361,0,0,8.34718,-2026.05,-38623.9)">
                <path d="M8369.9,5313.14C8369.9,5313.14 8586.86,5189.26 8765.01,5315.09" style="fill:none;stroke:rgb(35,31,32);stroke-width:3.49px;"/>
            </g>
            <g transform="matrix(1,0,0,1,0,-15.9612)">
                <path d="M8365.74,6505.63C8365.74,6505.63 8348.78,7194.73 7894.38,7222.8" style="fill:none;stroke:rgb(119,246,102);stroke-width:20.83px;"/>
            </g>
            <g transform="matrix(-0.206363,-0.978475,0.978475,-0.206363,6082.18,14924.7)">
                <path d="M8365.74,6505.63C8365.74,6505.63 8348.78,7194.73 7894.38,7222.8" style="fill:none;stroke:rgb(119,246,102);stroke-width:20.83px;"/>
            </g>
            <g transform="matrix(-0.206363,-0.978475,0.978475,-0.206363,4413.58,13291)">
                <path d="M8365.74,6505.63C8365.74,6505.63 8348.78,7194.73 7894.38,7222.8" style="fill:none;stroke:rgb(119,246,102);stroke-width:20.83px;"/>
            </g>
            <g transform="matrix(-0.185679,-0.38903,0.749613,-0.357781,3360.21,9790.28)">
                <path d="M8365.74,6505.63C8365.74,6505.63 8348.78,7194.73 7894.38,7222.8" style="fill:none;stroke:rgb(119,246,102);stroke-width:31.48px;"/>
            </g>
        </g>
    </g>
</svg>
